@startuml
'https://plantuml.com/sequence-diagram

package DrawingArea{

class ToolPane {
    - ToggleOptionGroup buttonsGroup
    - CanvasState canvasState
    - FigureStyle currentFigureStyle
    - List<Render<? extends MovableDrawing>> selectedList

    + ToolPanel(double spacing, CanvasState canvasState, List<Render<? extends MovableDrawing>> selectedList)
    + void createButtons()
    + ButtonsGroup getButtonsGroup()
    - void createSlider()
    - void createBorderColorPicker()
    - void createFillColorPicker()
    - void setButtonStyle(ButtonBase button)
    - void deleteAction(ActionEvent actionEvent)
    - void moveToFront(ActionEvent actionEvent)
    - void moveToBack(ActionEvent actionEvent)
}

class PaintPane {
    - {static} final int MIN_SELECTED_AREA = 1
    - CanvasState canvasState
    - StatusPane statusPane
    - GraphicsContext gc
    - ButtonsGroup buttonsGroup
    - List<Render<? extends MovableDrawing>> selectedList
    - Point startPoint;
    + PaintPane(CanvasState canvasState, StatusPane statusPane)
    - Canvas makeCanvas()
    - void updateInfoBarOnMove(Point eventPoint)
    - void updateInfoBarOnClick()
    - void redrawCanvas()
}
}

package javafx.scene.layout {
    .BorderPane <|-- PaintPane
    .VBox <|-- ToolPane
}
@enduml